<?xml version="1.0" encoding="UTF-8" standalone="no"?><svg xmlns="http://www.w3.org/2000/svg" xmlns:xlink="http://www.w3.org/1999/xlink" contentScriptType="application/ecmascript" contentStyleType="text/css" height="337px" preserveAspectRatio="none" style="width:338px;height:337px;background:#FFFFFF;" version="1.1" viewBox="0 0 338 337" width="338px" zoomAndPan="magnify"><defs><filter height="300%" id="fihzgl4wme558" width="300%" x="-1" y="-1"><feGaussianBlur result="blurOut" stdDeviation="2.0"/><feColorMatrix in="blurOut" result="blurOut2" type="matrix" values="0 0 0 0 0 0 0 0 0 0 0 0 0 0 0 0 0 0 .4 0"/><feOffset dx="4.0" dy="4.0" in="blurOut2" result="blurOut3"/><feBlend in="SourceGraphic" in2="blurOut3" mode="normal"/></filter></defs><g><rect fill="#FEFECE" filter="url(#fihzgl4wme558)" height="34.1328" style="stroke:#A80036;stroke-width:1.5;" width="72" x="109" y="195"/><text fill="#000000" font-family="sans-serif" font-size="12" lengthAdjust="spacing" textLength="58" x="116" y="208.6016">Bookmark</text><line style="stroke:#A80036;stroke-width:1.5;" x1="110" x2="180" y1="213.1328" y2="213.1328"/><rect fill="#FEFECE" filter="url(#fihzgl4wme558)" height="34.1328" style="stroke:#A80036;stroke-width:1.5;" width="36" x="7" y="289"/><text fill="#000000" font-family="sans-serif" font-size="12" lengthAdjust="spacing" textLength="22" x="14" y="302.6016">Tag</text><line style="stroke:#A80036;stroke-width:1.5;" x1="8" x2="42" y1="307.1328" y2="307.1328"/><rect fill="#FEFECE" filter="url(#fihzgl4wme558)" height="34.1328" style="stroke:#A80036;stroke-width:1.5;" width="49" x="78.5" y="289"/><text fill="#000000" font-family="sans-serif" font-size="12" lengthAdjust="spacing" textLength="35" x="85.5" y="302.6016">Genre</text><line style="stroke:#A80036;stroke-width:1.5;" x1="79.5" x2="126.5" y1="307.1328" y2="307.1328"/><rect fill="#FEFECE" filter="url(#fihzgl4wme558)" height="34.1328" style="stroke:#A80036;stroke-width:1.5;" width="48" x="163" y="289"/><text fill="#000000" font-family="sans-serif" font-size="12" lengthAdjust="spacing" textLength="34" x="170" y="302.6016">Status</text><line style="stroke:#A80036;stroke-width:1.5;" x1="164" x2="210" y1="307.1328" y2="307.1328"/><rect fill="#FEFECE" filter="url(#fihzgl4wme558)" height="34.1328" style="stroke:#A80036;stroke-width:1.5;" width="78" x="246" y="289"/><text fill="#000000" font-family="sans-serif" font-size="12" lengthAdjust="spacing" textLength="64" x="253" y="302.6016">MediaType</text><line style="stroke:#A80036;stroke-width:1.5;" x1="247" x2="323" y1="307.1328" y2="307.1328"/><rect fill="#FEFECE" filter="url(#fihzgl4wme558)" height="34.1328" style="stroke:#A80036;stroke-width:1.5;" width="40" x="125" y="7"/><text fill="#000000" font-family="sans-serif" font-size="12" lengthAdjust="spacing" textLength="26" x="132" y="20.6016">User</text><line style="stroke:#A80036;stroke-width:1.5;" x1="126" x2="164" y1="25.1328" y2="25.1328"/><rect fill="#FEFECE" filter="url(#fihzgl4wme558)" height="34.1328" style="stroke:#A80036;stroke-width:1.5;" width="37" x="126.5" y="101"/><text fill="#000000" font-family="sans-serif" font-size="12" lengthAdjust="spacing" textLength="23" x="133.5" y="114.6016">Tab</text><line style="stroke:#A80036;stroke-width:1.5;" x1="127.5" x2="162.5" y1="119.1328" y2="119.1328"/><!--MD5=[6f981a4dd90a18a89e188b549312793a]
reverse link User to Tab--><path codeLine="10" d="M145,54.14 C145,69.58 145,87.96 145,100.85 " fill="none" id="User-backto-Tab" style="stroke:#A80036;stroke-width:1.0;"/><polygon fill="#FFFFFF" points="145,41.03,141,47.03,145,53.03,149,47.03,145,41.03" style="stroke:#A80036;stroke-width:1.0;"/><text fill="#000000" font-family="sans-serif" font-size="13" lengthAdjust="spacing" textLength="8" x="135.675" y="61.7534">1</text><text fill="#000000" font-family="sans-serif" font-size="13" lengthAdjust="spacing" textLength="12" x="131.0125" y="90.2825">m</text><!--MD5=[fcc340c91d968df4d48baf47d1370433]
reverse link Tab to Bookmark--><path codeLine="12" d="M145,148.14 C145,163.58 145,181.96 145,194.85 " fill="none" id="Tab-backto-Bookmark" style="stroke:#A80036;stroke-width:1.0;"/><polygon fill="#FFFFFF" points="145,135.03,141,141.03,145,147.03,149,141.03,145,135.03" style="stroke:#A80036;stroke-width:1.0;"/><text fill="#000000" font-family="sans-serif" font-size="13" lengthAdjust="spacing" textLength="8" x="135.675" y="155.7534">1</text><text fill="#000000" font-family="sans-serif" font-size="13" lengthAdjust="spacing" textLength="12" x="131.0125" y="184.2825">m</text><!--MD5=[64203b4f6e3621b1a3f3ec338c74de82]
reverse link Bookmark to Tag--><path codeLine="14" d="M113.75,236.96 C91.37,254.12 62,276.63 43.31,290.96 " fill="none" id="Bookmark-backto-Tag" style="stroke:#A80036;stroke-width:1.0;"/><polygon fill="#FFFFFF" points="124.1,229.03,116.9045,229.5043,114.5748,236.3287,121.7703,235.8544,124.1,229.03" style="stroke:#A80036;stroke-width:1.0;"/><text fill="#000000" font-family="sans-serif" font-size="13" lengthAdjust="spacing" textLength="8" x="107.8519" y="249.7534">1</text><text fill="#000000" font-family="sans-serif" font-size="13" lengthAdjust="spacing" textLength="12" x="51.0588" y="281.3721">m</text><!--MD5=[39e25137d03a524c578eb1fb4f9b122b]
reverse link Bookmark to Genre--><path codeLine="15" d="M132.13,241.2 C124.99,256.83 116.38,275.7 110.37,288.85 " fill="none" id="Bookmark-backto-Genre" style="stroke:#A80036;stroke-width:1.0;"/><polygon fill="#FFFFFF" points="137.68,229.03,131.5478,232.8242,132.6915,239.944,138.8237,236.1498,137.68,229.03" style="stroke:#A80036;stroke-width:1.0;"/><text fill="#000000" font-family="sans-serif" font-size="13" lengthAdjust="spacing" textLength="8" x="125.9303" y="249.7534">1</text><text fill="#000000" font-family="sans-serif" font-size="13" lengthAdjust="spacing" textLength="12" x="98.8238" y="278.2825">m</text><!--MD5=[37bbe47f4925ff168c26aa82c136a949]
reverse link Bookmark to MediaType--><path codeLine="16" d="M180.25,236.17 C205.27,252.61 238.21,274.26 260.42,288.85 " fill="none" id="Bookmark-backto-MediaType" style="stroke:#A80036;stroke-width:1.0;"/><polygon fill="#FFFFFF" points="169.39,229.03,172.208,235.6677,179.419,235.6193,176.6009,228.9817,169.39,229.03" style="stroke:#A80036;stroke-width:1.0;"/><text fill="#000000" font-family="sans-serif" font-size="13" lengthAdjust="spacing" textLength="8" x="168.1442" y="249.7534">1</text><text fill="#000000" font-family="sans-serif" font-size="13" lengthAdjust="spacing" textLength="8" x="242.9529" y="278.2825">1</text><!--MD5=[699679fd6157fe0f5419436607443cc4]
reverse link Bookmark to Status--><path codeLine="17" d="M157.87,241.2 C165.01,256.83 173.62,275.7 179.63,288.85 " fill="none" id="Bookmark-backto-Status" style="stroke:#A80036;stroke-width:1.0;"/><polygon fill="#FFFFFF" points="152.32,229.03,151.1763,236.1498,157.3085,239.944,158.4522,232.8242,152.32,229.03" style="stroke:#A80036;stroke-width:1.0;"/><text fill="#000000" font-family="sans-serif" font-size="13" lengthAdjust="spacing" textLength="8" x="145.4198" y="249.7534">1</text><text fill="#000000" font-family="sans-serif" font-size="13" lengthAdjust="spacing" textLength="8" x="167.8637" y="278.2825">1</text><!--MD5=[f7c98b3485ce6b243caff70653940862]
@startuml

object Bookmark
object Tag
object Genre
object Status
object MediaType
object User
object Tab

User "1" o- - "m" Tab

Tab "1" o- - "m" Bookmark

Bookmark "1" o- - "m" Tag
Bookmark "1" o- - "m" Genre
Bookmark "1" o- - "1" MediaType
Bookmark "1" o- - "1" Status

@enduml

PlantUML version 1.2021.11(Sat Oct 02 15:26:11 CEST 2021)
(GPL source distribution)
Java Runtime: OpenJDK Runtime Environment
JVM: OpenJDK 64-Bit Server VM
Default Encoding: UTF-8
Language: en
Country: DK
--></g></svg>